/* XPM */
static char *_c0ce317c8884ed39fe18fdecc8fbe78u5cNIR2sSUZyvOC7[] = {
/* columns rows colors chars-per-pixel */
"64 64 220 2 ",
"   c #02000F",
".  c #020013",
"X  c #090416",
"o  c #05001A",
"O  c #0A001E",
"+  c #0B0819",
"@  c #100C1E",
"#  c #10061F",
"$  c #17131F",
"%  c #0C0021",
"&  c #0C012D",
"*  c #1A0D2B",
"=  c #130627",
"-  c #18132D",
";  c #190B32",
":  c #1E1436",
">  c #231D2D",
",  c #26163A",
"<  c #2C243A",
"1  c #2D2636",
"2  c #333039",
"3  c #31283B",
"4  c #2D1B48",
"5  c #2D2148",
"6  c #322847",
"7  c #3A3548",
"8  c #40364E",
"9  c #43345F",
"0  c #4A3E64",
"q  c #494553",
"w  c #514C5B",
"e  c #4F436B",
"r  c #544862",
"t  c #5A5566",
"y  c #605A6B",
"u  c #6D6878",
"i  c #6E6B73",
"p  c #461E97",
"a  c #4E258D",
"s  c #492395",
"d  c #532E95",
"f  c #572B9D",
"g  c #57339B",
"h  c #59349B",
"j  c #5F3B9D",
"k  c #583793",
"l  c #623F9B",
"z  c #542BA2",
"x  c #5527A9",
"c  c #5B32A3",
"v  c #5D39A2",
"b  c #5E30AC",
"n  c #5D2BB2",
"m  c #5C32B8",
"M  c #643BAC",
"N  c #603AA3",
"B  c #6A36BE",
"V  c #6638B8",
"C  c #654299",
"Z  c #6F6A81",
"A  c #726A81",
"S  c #7B7686",
"D  c #7F669F",
"F  c #7F7192",
"G  c #6745AA",
"H  c #7658A8",
"J  c #6641B7",
"K  c #6D47B8",
"L  c #7445BA",
"P  c #7D68A0",
"I  c #6E3AC3",
"U  c #6F3ACC",
"Y  c #6736C5",
"T  c #703DC5",
"R  c #743ECB",
"E  c #6C38D9",
"W  c #743CD4",
"Q  c #743CDC",
"!  c #7B3EDA",
"~  c #793DD1",
"^  c #743DE2",
"/  c #753CE9",
"(  c #7C3CEC",
")  c #7B3EE3",
"_  c #703CED",
"`  c #6D47C0",
"'  c #7442CB",
"]  c #7A44CD",
"[  c #7748C6",
"{  c #6F42D0",
"}  c #7542D3",
"|  c #7B43D4",
" . c #7E4AD3",
".. c #7442DA",
"X. c #7F47DE",
"o. c #7E49DB",
"O. c #774AD9",
"+. c #7D54D9",
"@. c #6F45E7",
"#. c #7D45E1",
"$. c #7E48E2",
"%. c #7F43EB",
"&. c #7943E9",
"*. c #857D8D",
"=. c #9075BA",
"-. c #8569BD",
";. c #8147CC",
":. c #8257CA",
">. c #8146D5",
",. c #824BD5",
"<. c #8145DB",
"1. c #8149DD",
"2. c #8255DD",
"3. c #8659D9",
"4. c #8C68CD",
"5. c #9475C5",
"6. c #8968D9",
"7. c #9068DA",
"8. c #9776D9",
"9. c #8246E3",
"0. c #824AE2",
"q. c #8B4DE6",
"w. c #8246EB",
"e. c #8449EA",
"r. c #8A4EEC",
"t. c #8452E3",
"y. c #8A54E5",
"u. c #8B52EC",
"i. c #8756E8",
"p. c #894DF4",
"a. c #8C4EF9",
"s. c #8449F2",
"d. c #8A52F3",
"f. c #9B73EB",
"g. c #986EEA",
"h. c #A17DE1",
"j. c #9E9C8D",
"k. c #8C8494",
"l. c #8A859C",
"z. c #918F96",
"x. c #938EA2",
"c. c #9D84BD",
"v. c #9995A3",
"b. c #A199A8",
"n. c #A7A4AF",
"m. c #A7A5B1",
"M. c #B3AFBD",
"N. c #B9B7B8",
"B. c #AB98CB",
"V. c #AD8ED9",
"C. c #A586D8",
"Z. c #AD97D6",
"A. c #B99CDF",
"S. c #B6AFC1",
"D. c #BFBBC3",
"F. c #BEB6CB",
"G. c #B9A5D8",
"H. c #BE9EE9",
"J. c #AA85E2",
"K. c #C2BCC8",
"L. c #C3A6DC",
"P. c #C8B8DA",
"I. c #C4A7EE",
"U. c #C9B7E5",
"Y. c #D3B9E8",
"T. c #C8AAF2",
"R. c #CCB2F4",
"E. c #C8BAF5",
"W. c #D3BBF9",
"Q. c #C8C5CB",
"!. c #CCC8D5",
"~. c #D6D3DB",
"^. c #DAD8DD",
"/. c #E5E3D7",
"(. c #D6CAE6",
"). c #DCD4E4",
"_. c #DFDDE0",
"`. c #DDC3FC",
"'. c #DDCBFB",
"]. c #D9C6F5",
"[. c #E4DFEE",
"{. c #E6DEE4",
"}. c #E5D5F6",
"|. c #E8D8FC",
" X c #E4CDF9",
".X c #E4E1E6",
"XX c #EEEFEE",
"oX c #E7E1EC",
"OX c #F1EAED",
"+X c #F6F4E3",
"@X c #F6F9E4",
"#X c #FAFFE5",
"$X c #F4F5EC",
"%X c #FDFEEC",
"&X c #F4FCEF",
"*X c #EBE4F3",
"=X c #EDE7F7",
"-X c #F2ECF3",
";X c #F3E4FC",
":X c #F4EAFD",
">X c #FBECFE",
",X c #F9E5FF",
"<X c #EFF0FF",
"1X c #F5F5F4",
"2X c #F6F9F3",
"3X c #FEFFF6",
"4X c #FCFDF4",
"5X c #F6F5FA",
"6X c #FCF5FE",
"7X c #F6FAFD",
"8X c #FFFFF8",
"9X c #FFFFFA",
"0X c #FDFEFA",
"qX c #FEFAFF",
"wX c #FFFFFD",
"eX c #FFFDFF",
"rX c #FFFFFF",
"tX c #FCFEFE",
"yX c #FEFEFE",
"uX c #F8F7F5",
/* pixels */
"X.X.X.X.X.X.X.X.X.X.X.X.X.X.X.X.X.X.X.X.X.X.X.X.X.X.X.X.X.X.X.X.X.X.X.X.X.X.X.X.X.X.X.X.X.X.X.X.X.X.X.X.X.X.X.X.X.X.X.X.X.X.X.X.",
"X.X.X.X.X.X.X.X.X.X.X.X.X.X.X.X.X.X.X.X.X.X.X.X.X.X.X.X.X.X.X.X.X.X.X.X.X.X.X.X.X.X.X.X.X.X.X.X.X.X.X.X.X.X.X.X.X.X.X.X.X.X.X.X.",
"X.X.X.X.X.X.X.X.X.X.X.X.X.X.X.X.X.X.X.X.X.X.X.X.X.X.X.X.X.X.X.X.X.X.X.X.X.X.X.X.X.X.X.X.X.X.X.X.X.X.X.X.X.X.X.X.X.X.X.X.X.X.X.X.",
"X.X.X.X.X.X.X.X.X.X.X.X.X.X.X.X.X.X.X.X.X.X.X.X.X.X.X.X.X.X.X.X.X.X.X.X.X.X.X.X.X.X.X.X.X.X.X.X.X.X.X.X.X.X.X.X.X.X.X.X.X.X.X.X.",
"X.X.X.X.X.X.X.X.X.X.X.X.X.X.X.X.X.X.X.X.X.X.X.X.X.X.X.X.X.X.X.X.X.X.X.X.X.X.X.X.X.X.X.X.X.X.X.X.X.X.X.X.X.X.X.X.X.X.X.X.X.X.X.X.",
"X.X.X.X.X.X.X.X.X.X.X.X.X.X.X.X.X.X.X.X.X.X.X.X.X.X.X.X.X.X.X.X.X.X.X.X.X.X.X.X.X.X.X.X.X.X.X.X.X.X.X.X.X.X.X.X.X.X.X.X.X.X.X.X.",
"X.X.X.X.X.X.X.X.X.X.X.X.X.X.X.X.X.X.X.X.X.X.X.X.X.X.X.X.X.X.X.X.X.X.X.X.X.X.X.X.X.X.X.X.X.X.X.X.X.X.X.X.X.X.X.X.X.X.X.X.X.X.X.X.",
"X.X.X.X.X.X.X.X.X.X.X.X.X.X.X.X.X.X.X.X.X.X.X.X.X.X.X.X.X.X.X.X.X.X.X.X.X.X.X.X.X.X.X.X.X.X.X.X.X.X.X.X.X.X.X.X.X.X.X.X.X.X.X.X.",
"X.X.X.X.X.X.X.X.X.X.X.X.X.X.X.X.w.<.]  .1.#.#.e.| o.1.#.%.s.w.X.1.,.| 1.1.<.9.9.] 1.X.e.0.o.1.<.X.X.X.X.X.X.X.X.X.X.X.X.X.X.X.X.",
"X.X.X.X.X.X.X.X.X.X.X.X.X.X.X.X.X.| q.0.W 0.y.] ! 9.X.o.1.| W Q &.^ Q Q | o.o.| p.W  .| X.| | 9.X.X.X.X.X.X.X.X.X.X.X.X.X.X.X.X.",
"X.X.X.X.X.X.X.X.X.X.X.X.X.X.X.X.] X.%.w.9.>. .,.a.! ] | U ,.J.L.U.W.W.I.h.3.#./ ( u.2.W q.1.0.w.X.X.X.X.X.X.X.X.X.X.X.X.X.X.X.X.",
"X.X.X.X.X.X.X.X.X.X.X.X.X.X.X.X.,.q.) ) q.>.~ r.1.$.o.f.`.>X6XqX8X3X3XqXqX>XR.5.] ..e.9.| o.#.#.X.X.X.X.X.X.X.X.X.X.X.X.X.X.X.X.",
"X.X.X.X.X.X.X.X.X.X.X.X.X.X.X.X.o.X.9.<.| 1.e./ E 8.].qX5XqXqX4X7XqXqXuX2X8XqXqXL.' _ d.] X.Q 1.X.X.X.X.X.X.X.X.X.X.X.X.X.X.X.X.",
"X.X.X.X.X.X.X.X.X.X.X.X.X.X.X.X.#.X.<.1.1.....t.U.:XqX3X#X#X7XtX7XqX8X3X8X8XqX6X4XW.....y.X.0.,.X.X.X.X.X.X.X.X.X.X.X.X.X.X.X.X.",
"X.X.X.X.X.X.X.X.X.X.X.X.X.X.X.X.&.0.] <.r.} :.T.qX2X4X4X7XqXqX4X8X8X8X8X8X3X3X&X3XqXV.V u.W 0.} X.X.X.X.X.X.X.X.X.X.X.X.X.X.X.X.",
"X.X.X.X.X.X.X.X.X.X.X.X.X.X.X.X.#. .,.X./ t.I.qX6XqXqXqXqXqX8X8X8X8XqXqXqXqXqXqXtX@XqX4.&.X.1.9.X.X.X.X.X.X.X.X.X.X.X.X.X.X.X.X.",
"X.X.X.X.X.X.X.X.X.X.X.X.X.X.X.X.#. .| r._ G.3XqX5XqXqXtXqXqXqXqXqXqXqXqX5XqXqXqXqX7X3X(.J $.<.9.X.X.X.X.X.X.X.X.X.X.X.X.X.X.X.X.",
"X.X.X.X.X.X.X.X.X.X.X.X.X.X.X.X.o.X.| e.6.>X%XqXqXqXqXqXqXqXqXuXqXqXqXqXqX0XqXqX8X7X3XqX8.Y u.! X.X.X.X.X.X.X.X.X.X.X.X.X.X.X.X.",
"X.X.X.X.X.X.X.X.X.X.X.X.X.X.X.X.| e.X.| ].qX8XqX0X1XqXqXqX0XqXqX0XqXqXqXqXuXqXqX8XqX$X2XR.V q.! X.X.X.X.X.X.X.X.X.X.X.X.X.X.X.X.",
"X.X.X.X.X.X.X.X.X.X.X.X.X.X.X.X.| e.#.7.8XuXqXuXqXqXqX0XuXqXqXqXqXXXqX8XqXqXuXqXXXqX8X@X6XK W q.X.X.X.X.X.X.X.X.X.X.X.X.X.X.X.X.",
"X.X.X.X.X.X.X.X.X.X.X.X.X.X.X.X.0.X.#.R.%X#X<XqX5X6XqX8XqXqX6XqXqXuXqXuX0X1XqXqXqX5X8X%XqX5.V 1.X.X.X.X.X.X.X.X.X.X.X.X.X.X.X.X.",
"X.X.X.X.X.X.X.X.X.X.X.X.X.X.X.X.9.| } >X2X#XqX6XqX6XqXqXqXqXqXqX1XqXuXqXqXqX:XF.}.8X$X4X8XG.c | X.X.X.X.X.X.X.X.X.X.X.X.X.X.X.X.",
"X.X.X.X.X.X.X.X.X.X.X.X.X.X.X.X.X.| 4.qXqX2XqXk.6 S =XqX1XqXqXqXqX0XqX1X-X[.< O 9 /.8XqXqX).h e.X.X.X.X.X.X.X.X.X.X.X.X.X.X.X.X.",
"X.X.X.X.X.X.X.X.X.X.X.X.X.X.X.X.$.E A.qX0XtXN.= - . S 6XqXqXqXqX8XqXqXqXqXt O 5 & j.8X7XqX-Xl Q X.X.X.X.X.X.X.X.X.X.X.X.X.X.X.X.",
"X.X.X.X.X.X.X.X.X.X.X.X.X.X.X.X.9.^ U.%X5XqXS & , * < qX5XqX$X3XqX1X8X1X5X3 = 4 & A qX1X0XqXH I 0.X.X.1.0.X.o.1.X.X.X.X.X.X.X.X.",
"X.X.X.X.X.X.X.X.X.X.X.X.X.X.X.X.<...}.%XqXqXi : , * < oX6XqXqXqX6XqXqXqXqX< , ; ; y qXqX2XqX=.n 0.X.X.1.0.X.o.<.X.X.X.X.X.X.X.X.",
"X.X.X.X.X.X.X.X.X.X.X.X.X.X.X.X.! i.>X3XqXqX*.o 4 ; 6 6XqX!.x.Z t q M.qXqXr % 5 . k.qXqX2XqXB.z 0.X.X.1.1.X.X.X.X.X.X.X.X.X.X.X.",
"X.X.X.X.X.X.X.X.X.X.X.X.X.X.X.X.! g.qX3X6X8X!.- = O k.6X~.$ . : 7 1 m.6XqXK.* O 7 .XqXuX8XqXG.f X.o.o.X.1.X.X.X.X.X.X.X.X.X.X.X.",
"X.X.X.X.X.X.X.X.X.X.X.X.X.X.X.X.! 8.qX8XqX2XqXn.8 S qX0XuXQ.*XqXqXqX0XqXqXqX!.b.~.qX4XqX8XqXU.d o.o.X.X.X.X.#.#.X.X.X.X.X.X.X.X.",
"X.X.X.X.X.X.X.X.X.X.X.X.X.X.X.X.Q C.3XqXqX3XqXqXqX1XqX8X8XqX5XqXqXqX4X8X3X1XqXqXqX8X8XqX4XqXY.d | o.1.X.X.#.0.X.X.X.X.X.X.X.X.X.",
"X.X.X.X.X.X.X.X.X.X.X.X.X.X.X.X.Q H.3X7XqX3X-XqX4XuXqX0XqX0XqXqXqX8X8X8X8XqXqX1X5X2X8X5XqXqX].k } o.1.X.X.0.0.#.X.X.X.X.X.X.X.X.",
"X.X.X.X.X.X.X.X.X.X.X.X.X.X.<.X.^ T.%XqX6X3XqXqX8XqX5XqXqXqX8X8XqXqXqXqX0XqXqXqXqX8XuXqXqX1X|.k } o.1.X.X.0.9.#.X.X.X.X.X.X.X.X.",
"X.X.X.X.X.X.X.X.X.X.X.X.X.X.X.X.Q Y.qX8X-XF _.3XqX^.-XqXqX6XqXqXqXqXqX0XqX.XD.qX3XqXe S qX8X{.v I 1.0.#.1.o.0.X.X.X.X.X.X.X.X.X.",
"X.X.X.X.X.X.X.X.X.X.X.X.X.X.X.X.#. X6X0X~.o N.4X6X2 i qXqXqX0X0X1XqX1X8XqXi > 6X3XqX5 7 qX1XOXh I 1.0.#.1.o.0.X.X.X.X.X.X.X.X.X.",
"X.X.X.X.X.X.X.X.X.X.X.X.X.X.X.X...|.tX2XD.% K.tX*XX t qX6X5XqXqXqXqXqXqXqXn.  (.3XqX0 < 6XqX>XG I 1.0.#.1.o.0.#.X.X.X.X.X.X.X.X.",
"X.X.X.X.X.X.X.X.X.X.X.X.X.X.X.X.| }.qXqXK.: S.qX(.@ v.5XqXqXqX8XqXXXqXqX5XoX@ l.qXqX0 1 6XqX*Xv I 1.$.#.1.o.0.#.X.X.X.X.X.X.X.X.",
"X.X.X.X.X.X.X.X.X.X.X.X.X.X.X.X.,.|.6XqX{.o *.qXA . !.5XqXqXuXqXqXqXqXqXqXqXq < qXqX: q qXqX>XG I 1.$.#.1.o.0.#.X.X.X.X.X.X.X.X.",
"X.X.X.X.X.X.X.X.X.X.X.X.X.X.X.X. .>X7X7XqXr > u X y qXqXqXqXqXqXqXqXqXuXqXqXM.  t w # v.5X6X>XN I o.$.#.1.o.0.#.X.X.X.X.X.X.X.X.",
"X.X.X.X.X.X.X.X.X.X.X.X.X.X.X.X.[ >XqXtX8XP.1 + w oXqXqX8XqXqX5XqXuXqX8XqX0XqXk.= $ S 0XqXqX-Xj I o.$.#.1.o.0.#.X.X.X.X.X.X.X.X.",
"X.X.X.X.X.X.X.X.X.X.X.X.X.X.X.X.3.;X7XtX3XqX6X).qXqXqXqX8XqX5XqXqXqX8X8XuXqXqXqX=X*X6X8XqXqXoXG I o.$.#.1.o.0.#.X.X.X.X.X.X.X.X.",
"X.X.X.X.X.X.X.X.X.X.X.X.1.1.X.X.+.:X8XtXqXqX8XqXqXqXqXqXqXqXqXqXqXqXqXqXqXqXqXqX3XqXqX0X6X8X*Xl B o.$.#.X.o.1.X.X.X.X.X.X.X.X.X.",
"X.X.X.X.X.X.X.X.X.X.X.X.1.1.X.X.2.>X8XtXqXqX8XqXqXqXqXqXqXqXqXqXqXqXqXqXqXqXqXqX3XqXqXqXqX8X;XC B o.$.#.X.o.1.X.X.X.X.X.X.X.X.X.",
"X.X.X.X.X.X.X.X.X.X.X.X.1.1.X.X.2.>X8XtXqXqX8XqXqXqXqXqXqXqXqXqXqXqXqXqXqXqXqXqX8X6XqXqXqX3X:XC B o.$.#.X.o.1.X.X.X.X.X.X.X.X.X.",
"X.X.X.X.X.X.X.X.X.X.X.X.1.1.X.X.t.>X8XtXqXqX8XqXqXqXqXqXqXqXqXqXqXqXqXqXqXqXqXqX8XqXqX8XqX3X>Xj I o.$.#.X.o.1.X.X.X.X.X.X.X.X.X.",
"X.X.X.X.X.X.X.X.X.X.X.X.1.1.X.X.2.>XqXtXqXqX8XqXqXqXqXqXqXqXqXqXqXqXqXqXqXqXqXqX8XqXqX8XtX8X:Xj I 1.#.#.X.o.1.X.X.X.X.X.X.X.X.X.",
"X.X.X.X.X.X.X.X.X.X.X.X.1.1.X.X.+.:XqXtXqXqX3XqXqXqXqXqXqXqXqXqXqXqXqXqXqXqXqXqX8XqXqX8XtX8X}.v I 1.#.#.1.o.1.X.X.X.X.X.X.X.X.X.",
"X.X.X.X.X.X.X.X.X.X.X.X.1.1.X.X.O.;XqXtXqXqX3XqXqXqXqXqXqXqXqXqXqXqXqXqXqXqXqXqX8XqXqXqXtXqXP.z T 1.#.#.1.X.1.X.X.X.X.X.X.X.X.X.",
"X.X.X.X.X.X.X.X.X.X.X.X.1.1.X.X.O.;XqXtXqXqX3XqXqXqXqXqXqXqXqXqXqXqXqXqXqXqXqXqX8X6XqXqX6X6XB.p T 1.#.X.1.X.1.X.X.X.X.X.X.X.X.X.",
"X.X.X.X.X.X.X.X.X.X.X.X.X.X.X.X.@.|.%X8XqX8X2XqX3X8XqXqXqX8X8XqXqX6XtX4X#XqX(.Y.3X$XqX4X#X6XC n X.X.X.X.X.X.X.X.X.X.X.X.X.X.X.X.",
"X.X.X.X.X.X.X.X.X.X.X.X.X.X.X.X.{ `.+X4XqXtX3X$XqX2X3X6X7X2X8XqX8X8XtXtXqX6XD x G.qX1X0XqXC.a M X.X.X.<.X.X.X.X.X.X.X.X.X.X.X.X.",
"X.X.X.X.X.X.X.X.X.X.X.X.X.X.X.X. .V.qX3XtX6X6X4XqXqX3X#XqX'.P qX3X8X0X8XqX].N x ` C.].'.-.s V L X.X.X.X.X.X.X.X.X.X.X.X.X.X.X.X.",
"X.X.X.X.X.X.X.X.X.X.X.X.X.X.X.X.! :.,X$X&XqXB.c.4XqX+X#XqXK p 5.qX5X%X%XqXG x L 0.T K s d M Y X.X.X.X.X.X.X.X.X.X.X.X.X.X.X.X.X.",
"X.X.X.X.X.X.X.X.X.X.X.X.X.X.X.X.q.E f.|.*XB.k z E.8X%XqX8.g V U 6.'.).P.H g M [ <.%.s.| [ L t.%.X.X.X.X.X.X.X.X.X.X.X.X.X.X.X.X.",
"X.X.X.X.X.X.X.X.X.X.X.X.X.X.X.X.;.a.E ` k d b B +.V.U.H g f L 1...m V s c b ] ! e.) #.$.| I 0.9.X.X.X.X.X.X.X.X.X.X.X.X.X.X.X.X.",
"X.X.X.X.X.X.X.X.X.X.X.X.X.X.X.X.R 9.e.$.| W R ] | ..x N c R y. .q./ a.' [ | %.u.9.W 0.1.e.e.#.0.X.X.X.X.X.X.X.X.X.X.X.X.X.X.X.X.",
"X.X.X.X.X.X.X.X.X.X.X.X.X.X.X.X.%.| ;.>.9.( r.,.#.p.e.}  .| &.%.9.1.] 1.9.1.o.| } t.o.W $.9...X.X.X.X.X.X.X.X.X.X.X.X.X.X.X.X.X.",
"X.X.X.X.X.X.X.X.X.X.X.X.X.X.X.X.X.X.X.X.X.X.X.X.X.X.X.X.X.X.X.X.X.X.X.X.X.X.X.X.X.X.X.X.X.X.X.X.X.X.X.X.X.X.X.X.X.X.X.X.X.X.X.X.",
"X.X.X.X.X.X.X.X.X.X.X.X.X.X.X.X.X.X.X.X.X.X.X.X.X.X.X.X.X.X.X.X.X.X.X.X.X.X.X.X.X.X.X.X.X.X.X.X.X.X.X.X.X.X.X.X.X.X.X.X.X.X.X.X.",
"X.X.X.X.X.X.X.X.X.X.X.X.X.X.X.X.X.X.X.X.X.X.X.X.X.X.X.X.X.X.X.X.X.X.X.X.X.X.X.X.X.X.X.X.X.X.X.X.X.X.X.X.X.X.X.X.X.X.X.X.X.X.X.X.",
"X.X.X.X.X.X.X.X.X.X.X.X.X.X.X.X.X.X.X.X.X.X.X.X.X.X.X.X.X.X.X.X.X.X.X.X.X.X.X.X.X.X.X.X.X.X.X.X.X.X.X.X.X.X.X.X.X.X.X.X.X.X.X.X.",
"X.X.X.X.X.X.X.X.X.X.X.X.X.X.X.X.X.X.X.X.X.X.X.X.X.X.X.X.X.X.X.X.X.X.X.X.X.X.X.X.X.X.X.X.X.X.X.X.X.X.X.X.X.X.X.X.X.X.X.X.X.X.X.X.",
"X.X.X.X.X.X.X.X.X.X.X.X.X.X.X.X.X.X.X.X.X.X.X.X.X.X.X.X.X.X.X.X.X.X.X.X.X.X.X.X.X.X.X.X.X.X.X.X.X.X.X.X.X.X.X.X.X.X.X.X.X.X.X.X.",
"X.X.X.X.X.X.X.X.X.X.X.X.X.X.X.X.X.X.X.X.X.X.X.X.X.X.X.X.X.X.X.X.X.X.X.X.X.X.X.X.X.X.X.X.X.X.X.X.X.X.X.X.X.X.X.X.X.X.X.X.X.X.X.X.",
"X.X.X.X.X.X.X.X.X.X.X.X.X.X.X.X.X.X.X.X.X.X.X.X.X.X.X.X.X.X.X.X.X.X.X.X.X.X.X.X.X.X.X.X.X.X.X.X.X.X.X.X.X.X.X.X.X.X.X.X.X.X.X.X."
};
