/* XPM */
static char *e6d052a98e634a3ed5ba6451f9030bb4jeNw4kvyVxe1xCWD[] = {
/* columns rows colors chars-per-pixel */
"64 64 256 2 ",
"   c black",
".  c #010101",
"X  c #020202",
"o  c gray1",
"O  c #040404",
"+  c gray2",
"@  c #060606",
"#  c #070707",
"$  c gray3",
"%  c #090909",
"&  c gray4",
"*  c #0B0B0B",
"=  c #0C0C0C",
"-  c gray5",
";  c #0E0E0E",
":  c gray6",
">  c #101010",
",  c #111111",
"<  c gray7",
"1  c #131313",
"2  c gray8",
"3  c #151515",
"4  c #161616",
"5  c gray9",
"6  c #181818",
"7  c #191919",
"8  c gray10",
"9  c #1B1B1B",
"0  c gray11",
"q  c #1D1D1D",
"w  c #1E1E1E",
"e  c gray12",
"r  c #202020",
"t  c gray13",
"y  c #222222",
"u  c #232323",
"i  c gray14",
"p  c #252525",
"a  c gray15",
"s  c #272727",
"d  c #282828",
"f  c gray16",
"g  c #2A2A2A",
"h  c gray17",
"j  c #2C2C2C",
"k  c #2D2D2D",
"l  c gray18",
"z  c #2F2F2F",
"x  c gray19",
"c  c #313131",
"v  c #323232",
"b  c gray20",
"n  c #343434",
"m  c #353535",
"M  c gray21",
"N  c #373737",
"B  c gray22",
"V  c #393939",
"C  c #3A3A3A",
"Z  c gray23",
"A  c #3C3C3C",
"S  c gray24",
"D  c #3E3E3E",
"F  c #3F3F3F",
"G  c gray25",
"H  c #414141",
"J  c gray26",
"K  c #434343",
"L  c #444444",
"P  c gray27",
"I  c #464646",
"U  c gray28",
"Y  c #484848",
"T  c #494949",
"R  c gray29",
"E  c #4B4B4B",
"W  c #4C4C4C",
"Q  c gray30",
"!  c #4E4E4E",
"~  c gray31",
"^  c #505050",
"/  c #515151",
"(  c gray32",
")  c #535353",
"_  c gray33",
"`  c #555555",
"'  c #565656",
"]  c gray34",
"[  c #585858",
"{  c gray35",
"}  c #5A5A5A",
"|  c #5B5B5B",
" . c gray36",
".. c #5D5D5D",
"X. c gray37",
"o. c #5F5F5F",
"O. c #606060",
"+. c gray38",
"@. c #626262",
"#. c gray39",
"$. c #646464",
"%. c #656565",
"&. c gray40",
"*. c #676767",
"=. c #686868",
"-. c DimGray",
";. c #6A6A6A",
":. c gray42",
">. c #6C6C6C",
",. c #6D6D6D",
"<. c gray43",
"1. c #6F6F6F",
"2. c gray44",
"3. c #717171",
"4. c #727272",
"5. c gray45",
"6. c #747474",
"7. c gray46",
"8. c #767676",
"9. c #777777",
"0. c gray47",
"q. c #797979",
"w. c gray48",
"e. c #7B7B7B",
"r. c #7C7C7C",
"t. c gray49",
"y. c #7E7E7E",
"u. c gray50",
"i. c #808080",
"p. c #818181",
"a. c gray51",
"s. c #838383",
"d. c #848484",
"f. c gray52",
"g. c #868686",
"h. c gray53",
"j. c #888888",
"k. c #898989",
"l. c gray54",
"z. c #8B8B8B",
"x. c gray55",
"c. c #8D8D8D",
"v. c #8E8E8E",
"b. c gray56",
"n. c #909090",
"m. c gray57",
"M. c #929292",
"N. c #939393",
"B. c gray58",
"V. c #959595",
"C. c gray59",
"Z. c #979797",
"A. c #989898",
"S. c gray60",
"D. c #9A9A9A",
"F. c #9B9B9B",
"G. c gray61",
"H. c #9D9D9D",
"J. c gray62",
"K. c #9F9F9F",
"L. c #A0A0A0",
"P. c gray63",
"I. c #A2A2A2",
"U. c gray64",
"Y. c #A4A4A4",
"T. c #A5A5A5",
"R. c gray65",
"E. c #A7A7A7",
"W. c gray66",
"Q. c #A9A9A9",
"!. c #AAAAAA",
"~. c gray67",
"^. c #ACACAC",
"/. c gray68",
"(. c #AEAEAE",
"). c #AFAFAF",
"_. c gray69",
"`. c #B1B1B1",
"'. c #B2B2B2",
"]. c gray70",
"[. c #B4B4B4",
"{. c gray71",
"}. c #B6B6B6",
"|. c #B7B7B7",
" X c gray72",
".X c #B9B9B9",
"XX c gray73",
"oX c #BBBBBB",
"OX c #BCBCBC",
"+X c gray74",
"@X c gray",
"#X c gray75",
"$X c #C0C0C0",
"%X c #C1C1C1",
"&X c gray76",
"*X c #C3C3C3",
"=X c gray77",
"-X c #C5C5C5",
";X c #C6C6C6",
":X c gray78",
">X c #C8C8C8",
",X c gray79",
"<X c #CACACA",
"1X c #CBCBCB",
"2X c gray80",
"3X c #CDCDCD",
"4X c #CECECE",
"5X c gray81",
"6X c #D0D0D0",
"7X c gray82",
"8X c #D2D2D2",
"9X c LightGray",
"0X c gray83",
"qX c #D5D5D5",
"wX c gray84",
"eX c #D7D7D7",
"rX c #D8D8D8",
"tX c gray85",
"yX c #DADADA",
"uX c gray86",
"iX c gainsboro",
"pX c #DDDDDD",
"aX c gray87",
"sX c #DFDFDF",
"dX c gray88",
"fX c #E1E1E1",
"gX c #E2E2E2",
"hX c gray89",
"jX c #E4E4E4",
"kX c gray90",
"lX c #E6E6E6",
"zX c #E7E7E7",
"xX c gray91",
"cX c #E9E9E9",
"vX c #EAEAEA",
"bX c gray92",
"nX c #ECECEC",
"mX c gray93",
"MX c #EEEEEE",
"NX c #EFEFEF",
"BX c gray94",
"VX c #F1F1F1",
"CX c gray95",
"ZX c #F3F3F3",
"AX c #F4F4F4",
"SX c gray96",
"DX c #F6F6F6",
"FX c gray97",
"GX c #F8F8F8",
"HX c #F9F9F9",
"JX c gray98",
"KX c #FBFBFB",
"LX c gray99",
"PX c #FDFDFD",
"IX c #FEFEFE",
"UX c white",
/* pixels */
"                . . .             ~ 0X~.^ _ 6.#X&.z.;.] n j.3X2XhX@.O   : 2 @             + ; 4 -.l g !.8X..&                   ",
"                .               % O.BXUX4X{.v.V.>.{ g -.6.#XUXIXIXZ.r         * + X         O # r 5 e `.UX8.# 2                 ",
"                                  O.AXaXP.D.i.~.ZXy.O &.e.Y.nX,X).f.-   .   < o & # O o o + $ &     O T.UXw.  O                 ",
"                          . . .   [ UXZ.W i.%.>XUXZ.C 8XVXcXBXv.,.@.+ u 3.q.:.r               . ; . < [.UXu.o .                 ",
"                          . X X 4 _ hXA , x.X.4XMX].q.LXUXUXJXm.9.L r n.fX!.#.0   o & #             M OXXXR 5                   ",
"                        . X o O & ..qXO./ I.$.^.MXpX`.pXiXvX;XN.B.d ' DXUXk.2   @ .       . o O & k g.oX_   %                   ",
"                        . X O O @ q.`.8XSX1Xg.:.@.T.sXUXUXUXE.K.}.t @.*X&XG._ Q 0 X     u Y _ / k.>XiXE.j   = @                 ",
"                        . o O + e.m.# 7.mX'.|.=.   .,XMXJXJXd.).XX+ >   4 '.9X6X8.W z ~ J.jXPXGXuXUX0X{ #     o                 ",
"                . X   & -   X x _.N   1 q.bXvX#XJ a Y.HX;XQ.l.q.T.w   :   A U y.vXO.<.hXUXUXUXVXAXNXb.q       $                 ",
"                  ,     X a Z C x.l , @ A 3XUXJX_.K.Y.+Xj.I q.o.J.w.    : .   ! Z._ n.DXZXNXUXFXFXB.y   % @   o                 ",
"                  = X @ ~ c.0.R k.r X   ; :.I.W.N.} ' O.`.F.z.I { N.7 o ; o I ].!.3.n.%X~.{.cXCXH.x     % $ .                   ",
"                -   > =.qXaXy.I H.D o   4 : < -.6.^ 3X4.}.E.b b v A.M.J   b oXcXX.@   6 7 z X.:.q . % >     =                   ",
"                & $ ..:XUXmX+.x /.P.Y 7 | Z - c.V.p.jX^ >.~   ; = v.pX` e K.nXrXB X w 4.B.V.H.G.a # = ;     ;                   ",
"                  / qXGXUXzX .d ,XUXZ.V ].-XI / ^ @.] 0 ^ m D c e s.!.g 8.UXKXrX1 z l.bXUXGXCXCX(.G         O #                 ",
"                O 0.UXIXKXZX=.s rXUX;X^ ).DXd.A '.DXAXMXvX%XxXgXw.<.1.| ;XUXbXm.< ,.7XJXJXIXUXLXUXR.m + #     %                 ",
"                % %.NXBXUXUX=.q -XUXkX..| #X7X1XUXNXJXDXPXPX/.l.0.; T 0XUXmXLXY x !.UXUXFXUXUXNXGXUX~.m +     O                 ",
"                : O.gXUXUXlX*.m &XCXlX+XS.C.UXxXPXLXKXUX+X1.M.c.>. .OXUXJXUXeXb ( <XUXbXmXUXSXUXcXUXCXW.,     O                 ",
"                  -.sXzXvXUXOXH +.aXUXUX(.p.PXZXUXFXmXUX].W R K <.sXLXvXIX9X2.P o.0XUXUXUXKXLXUXGXUXAX&Xg X   o                 ",
"                  g A.GXUXUXpXM z Q.UXVX).e.NXUXFXUXUXtXg.Y &.p.&XUXJXHXUXR.T x.:.mXUXUXUXMXUXDXUXGXPXyXC                       ",
"                X   V =XxXKXlXk   ~ ].pX2Xl.uXUXLXUX0Xa.$.n.8XnXUXnXJXUX9XJ.R.-X#.aXUXHXbXGXUXMXUXCXUX5Xc   # O             . X ",
"                @ O & A O.*XHX#.  $ D =.5.B N.FXvXG. .' A.NXUXSXUXKXUX6Xu.=XUX4X..M.VXIXDXUXDXIXHXKXUXW.a   :   X .         X o ",
"                O     < M t.&X'.^ %   1 ] n ` B.v.u L /.BXUXUXHXUXnX$XP.+XKXUXnXh.| $XUXUXUXzXUXUXUXlXs.P q >   # + .       . X ",
"                o     k 8.6.=.'.| 8 - H 2X;Xl.&.R > M.UXAXKXLXAXjX~.h.=XUXyX:XUX,X6.i.-XjXMXDXUXMX=Xb.#.K.a.Y $ = $ o           ",
"                O & + 2 m.Q.W 7.h +   O E.CXVXkX .S -XMX].sXbX].f.j.=XPX1X7.M.FXNXE.R ..h.=XUX>XK.X.g E HXAXY.@.: * O           ",
"                o     & 9 r./ ..d     V 4./.rXwX..O.M.O.x.v.5.1.Q.jXUXyXj.1.!.VXVXCX0.<   l 1.I 5   : M ../.cXsX~.' +   . @ X   ",
"                O * + # } ].} 4 =   C D.N.U j K P v.9Xs.J.:X:X|.JXUXUXSX:XT.'.9XUXpX| *     1   - O   p =.K L [.:X9.p o         ",
"                o     6 &XfX[     Z x.~.x.D @   @ o.J.+.g.2XvXzXZXnXZXUXFX8X[.~.sXc.w X X   @   $   < T H u A 1.c >     + .   o ",
"                    o p yX_.+.C 4.}.[.8.! d @ @ 4.N.I.N.oXvXUXUXUXUXUXUXPXzX*XY./.{ % X *   . #   4 ~ Y i _ <.f     . ; ; .     ",
"                  # 8 7 [.h.M.Y.#X].t.P 9     U jXUXBXbXBXHXHXUXKXUXLXbXAXUXhX_.U 5     O X   . O [ Q y U _ r o > * # .       * ",
"                  , = > 4XpX8Xw. .O.U 0     8 | W.UXUXUXKXUXUXHXAXUXUXPXUXUX[. .o       X $   , _ Z n / ` r   +             X & ",
"                  O   7 iXUXHX*.U P b #     5 - ! I.^.MXCXKXPXIXIXPXUXUXjXT.' w C - 2 +   O + D -.r D ;.k o 1 * o % : , ; @     ",
"                  X   u D.,XUX9Xt.3   + o   @ . o ,   7.b.q.2.l.p.5.q.p.@.B I 8.E         e R ].y X./ 7 * X     X         . O   ",
"                  = +   I I.N.D                                 O     q k.W.{.:.8   < +   f *.N.F.1.v %   # +                   ",
"                o #     6 A g                                   O     F /.Y.8.O 0     3 :.(.z.;.G a O     . @ O                 ",
"                +     . +                                           X   &   { e.z.j   T eXUXwX@X< $                             ",
"                      - &     ;                                 $ % #   o * J.PX_.> # R.lX=X%.-.: & $ * % .                     ",
"                o o O o                                                   . N.DX'.  & ~.h.} q y %       + X X #                 ",
"                  O                                             = 2 5 o .   y.0Xr.- 2 5.[ }.@X_.J 6           @                 ",
"                          o X .                                 O       w 4 E Y M ` E  .=.UXUXvX X;.0 . X .                     ",
"                &     # @     &                                   - 7 @ - O *.m.Q.KXC.m c 6X|.6XUXT.C ; * $ X X                 ",
"                                                      @ -     , y f K f.*X>X*XtX%XY.1.i r n.<Xb.>XN.2 G %.3 &                   ",
"                                                  o     @     0 }.tX7X[..X|.l.X.h.v.tX).j #.tX#X5./ n ^./.<                     ",
"                                                  %         O 0 w.K.W.c.4.5._.UX7X9XJX[.2 1 N.5X2X[.{.UX}.#   X                 ",
"                                                  $     o o   @ | >.x.:XZXvXhXIXUXUXA.c =   2 h.NXVXjX2X| . ;                   ",
"                                                  O     & O       w.tXVXUXUXUXCX XT.G @ e     r S ] O.K + . 8                   ",
"                                                        =     6 l m f A h.@X}.K.k A } L #   *         X     @                   ",
"                                                o     O +   6 +.P.g._ x 7     r s 3.(.#.    q   4 $ .   #     &                 ",
"                                                @ .   @     c P.DXxXx.w   ; *   ] dXhX)   . o       X   & #   @                 ",
"                                : .     X o O # . o O     + >.xXGXn.g % % X   O ! GXgX/ $   $                                   ",
"                                  . : #         X     <   h L.vXv.G           O / SXdX] #     X                                 ",
"                                  o %     . = & ,   = %   +.uXeXF 3     % + % 6 d.CX.XA +     X                                 ",
"                                $         + X     % <   s ^.tXg.+     X     # p 8XCXe.& X O +                                   ",
"                                X     : :         @   e ).MXv.t     @ #     > B VXZX$.    # @                                   ",
"                                    . # . + j { o.h   O.UXfXA   $ $ * #     % i pXSXq.&       .                                 ",
"                                  #       B :.y.t.) / }.KXB.4 % X       : 2 1 < wXHXa.-     X                                   ",
"                                  = X   e &.o.t * K {.UX6X} , o =     f o.q.,.[ vXLX4.    - =                                   ",
"                    + #   @ -       =   6 4.#X%.s F H.;XV.d   4 1   - 8 |.9.F S |.gX9.  > 1   # #   @         =                 ",
"                  + -       #     +     X ] x.2.=.,.( ^ p   & [ 0 & > O e.) , 1 D @.v   h U d 4 X . +   : 9   +                 ",
"                X F 8.,._ %.-.L w } $.2.X.f.r.k.j.K.P i.z.6.{ w.9.q.9.#.n.C._ H F f.b.2.9.r.;.$.+.7.$.L 6.w.a 2                 ",
"                  ,.4X7X.X4X>Xm.n F.6X.X$X%XP.|.XX8XI (.8X$XI.1X#X_.3X3XF.yX|.<.[ &X1X).6X;X~.7X'.iX&XV.7X<XK =                 ",
"                  ,.2X*X!.<X6XF., e.qXw.&X=X;XwX%X<XZ R.#XI.G.vX*Xp.}.<X! .X:X` ) XXb.u.SXvXG.3X!.fX8XW.kXtXS                   ",
"                  3.7X2X|.wXeXJ.X { 2X{ =X;X>X@X2X).L (.kX4XQ.1XqX3.J.].Z E.5X;.E '.k.t.CXpXn.5X{.jXfX.XgXtX!                   ",
"                + %. X].J.}.).7.; A R._ _.@XL.b.pX^.-.l.}.+XP.E.'.@.0.v.:.`.%XZ./ B.b.j.}.Q.V.>XA.]. XN.R.(./ ,                 ",
"                  m | C 9 N D 1 # + U 5 ..b.<.q.5.c./.i.( B j A S 6 y G 5.M.e.f.Y.k.<.} R H N s f m L d M ' s                   "
};
