/* XPM */
static char *_000021961_1_1698758905[] = {
/* columns rows colors chars-per-pixel */
"64 64 256 2 ",
"   c #020004",
".  c #04020A",
"X  c #0A050C",
"o  c #0B090D",
"O  c #0B0003",
"+  c #170509",
"@  c #0C0B11",
"#  c #0B0613",
"$  c #170A14",
"%  c #18141B",
"&  c #281607",
"*  c #39170A",
"=  c #27141B",
"-  c #2B1018",
";  c #362714",
":  c #1D1822",
">  c #251B26",
",  c #301A2C",
"<  c #28252A",
"1  c #382627",
"2  c #2C2733",
"3  c #342A35",
"4  c #38363A",
"5  c #2F3233",
"6  c #1E2323",
"7  c #4E1109",
"8  c #780803",
"9  c #6F160F",
"0  c #4F2C0C",
"q  c #672F0F",
"w  c #582827",
"e  c #47353A",
"r  c #4B302C",
"t  c #6E332A",
"y  c #704C17",
"u  c #57453A",
"i  c #4D4738",
"p  c #6A4E35",
"a  c #716427",
"s  c #3C3844",
"d  c #3E3348",
"f  c #483A49",
"g  c #4A3B53",
"h  c #4F3846",
"j  c #703F42",
"k  c #384142",
"l  c #49454B",
"z  c #58494A",
"x  c #4C4753",
"c  c #574B57",
"v  c #58555A",
"b  c #555252",
"n  c #67565B",
"m  c #6C4D4D",
"M  c #716558",
"N  c #5C5864",
"B  c #524F62",
"V  c #655B66",
"C  c #765C68",
"Z  c #6B5D72",
"A  c #5C6369",
"S  c #68666B",
"D  c #776768",
"F  c #6B6974",
"G  c #746B76",
"H  c #7C747C",
"J  c #7B7A7D",
"K  c #757578",
"L  c #737370",
"P  c #8A150D",
"I  c #B61C11",
"U  c #912719",
"Y  c #BA2405",
"T  c #AA2518",
"R  c #B22513",
"E  c #8D332B",
"W  c #A3332B",
"Q  c #C81B08",
"!  c #D61607",
"~  c #C71913",
"^  c #CE1107",
"/  c #C62308",
"(  c #E61A00",
")  c #845A13",
"_  c #8F6929",
"`  c #A46131",
"'  c #8E554C",
"]  c #8D6C51",
"[  c #967869",
"{  c #857779",
"}  c #8C6F71",
"|  c #AC7C6F",
" . c #AC5950",
".. c #C6726B",
"X. c #76837A",
"o. c #B58B32",
"O. c #918637",
"+. c #C49238",
"@. c #D5A734",
"#. c #EDB92E",
"$. c #C2931D",
"%. c #FBCC34",
"&. c #FBC52F",
"*. c #948751",
"=. c #B19253",
"-. c #948773",
";. c #A89578",
":. c #AC8D6E",
">. c #BAA269",
",. c #BAA47B",
"<. c #C89C4C",
"1. c #D6AC4E",
"2. c #E9B852",
"3. c #CFA870",
"4. c #D6A46D",
"5. c #F8CD53",
"6. c #F8CE72",
"7. c #D9C862",
"8. c #7C7985",
"9. c #787588",
"0. c #827C83",
"q. c #877B87",
"w. c #927C82",
"e. c #6F8181",
"r. c #848285",
"t. c #86848B",
"y. c #8A858B",
"u. c #89898C",
"i. c #94888B",
"p. c #8B8994",
"a. c #938C93",
"s. c #978B97",
"d. c #96949A",
"f. c #9C9A9D",
"g. c #989498",
"h. c #8F9491",
"j. c #A6989B",
"k. c #AC938C",
"l. c #97A199",
"z. c #B7A586",
"x. c #B4A79A",
"c. c #A9A49D",
"v. c #9D9CA2",
"b. c #9A97A3",
"n. c #9889A6",
"m. c #A39CA3",
"M. c #A79CA7",
"N. c #B59CA4",
"B. c #98A5A6",
"V. c #ABA3A4",
"C. c #A4A3AB",
"Z. c #ABA4AB",
"A. c #ACAAAD",
"S. c #A5A5A7",
"D. c #B4ABAC",
"F. c #BAADAE",
"G. c #B4A6A6",
"H. c #BAB4AB",
"J. c #ADACB3",
"K. c #A8A5B3",
"L. c #B3ACB3",
"P. c #B6ABB7",
"I. c #ABB5B7",
"U. c #B3B3B5",
"Y. c #BDB3B2",
"T. c #B5B3BB",
"R. c #BCB4BB",
"E. c #BCBABD",
"W. c #B8B9B6",
"Q. c #AFB1AC",
"!. c #CBAF8F",
"~. c #C3ACA9",
"^. c #C6B9A9",
"/. c #C2B5B5",
"(. c #C4BCB4",
"). c #C2B5BD",
"_. c #C5BBBB",
"`. c #C9BDBC",
"'. c #CABAB5",
"]. c #CEB4B0",
"[. c #EAB6AF",
"{. c #D69D8C",
"}. c #BFC1BC",
"|. c #D9CA9D",
" X c #EDD18E",
".X c #C9C3B8",
"XX c #D5C8BA",
"oX c #D7CBAE",
"OX c #E5D4B4",
"+X c #F1E2AC",
"@X c #BCB8C3",
"#X c #B8AFC1",
"$X c #C3BCC4",
"%X c #CBBDC4",
"&X c #C5B9C7",
"*X c #D4BEC7",
"=X c #B9C7C6",
"-X c #BFE0D5",
";X c #C4C3C4",
":X c #CCC3C3",
">X c #CBC4CB",
",X c #CBCACC",
"<X c #C6C6C8",
"1X c #D2C5C5",
"2X c #D2C4CC",
"3X c #D5CBCA",
"4X c #DACCCD",
"5X c #D6CAC4",
"6X c #D9D3CA",
"7X c #CCC7D2",
"8X c #D4CCD3",
"9X c #D9CDD4",
"0X c #D7CAD7",
"qX c #D4D2D4",
"wX c #DDD3D3",
"eX c #DBD4DB",
"rX c #DCDBDC",
"tX c #D7D7D8",
"yX c #CBD4D3",
"uX c #E7D8C7",
"iX c #E2D5D5",
"pX c #E2D4DD",
"aX c #E4DADA",
"sX c #EADDDD",
"dX c #E5D9D5",
"fX c #FAD6D6",
"gX c #EECDD0",
"hX c #D7E4DD",
"jX c #E8E3DC",
"kX c #F4EBD8",
"lX c #F5EACE",
"zX c #DDDAE3",
"xX c #D8CDE3",
"cX c #E3DDE3",
"vX c #E8D9E4",
"bX c #F4DFE4",
"nX c #DAE8E7",
"mX c #CEE4E2",
"MX c #E3E3E3",
"NX c #EDE2E2",
"BX c #EAE4EB",
"VX c #ECEAED",
"CX c #E7E7E7",
"ZX c #F1E5E5",
"AX c #F4EAEB",
"SX c #F5E8E9",
"DX c #FAF3E9",
"FX c #EDEBF2",
"GX c #EFE6F4",
"HX c #F3EEF5",
"JX c #F4F2F5",
"KX c #FCF4F5",
"LX c #FBF5FC",
"PX c #FEFDFE",
"IX c #F7F6F9",
"UX c #EBF3F4",
/* pixels */
"# # . . . @ o     5 6   O       < L }.yX}.}.yX6XhXhXCXjXnXVXjXjXDXDXAXjX6X.XXX6X(..XcXM.P.q.q.#XxXxX#X7XxX7X=XnX-X-XmXmXmXnXcXpX",
"N : . . # .   @ o .     O     6 X.A.<X.X}..XtXjX6XjXjXhXjXjXCXhXJXAXZXNXwXXX6XdXH.3XR.L.n.q.q.9.q.xXxX7X0XvXrXyXhXmXnXnXjXMXvXpX",
"xX#XK < .   .   X     @     5 L I..X.XU.Q..XhXhXhXjXCXhXjXCXCXMXIXAXVXZXdX6X6XjX5XwXm.>Xq.g 9.g 9.#XxX#X*XvX*X*X5X6X6XdXgXgXfXfX",
"@Xb.N :   . @ .     o @   6 X.}.Q.W.W.U.}.=XyX6XjXCXjXhXhXCXUXVXJXVXAXCXjXtXtXjXVX:Xf.rXN # g 9.9.9.n.#XgX*X*XbXuXfXlXfXfXfXfXfX",
"=Xs . . : .   #   . o     L }.E.v.Q.@X:X,XqXtXrXCXVXCXMXMXFXIXJXUXFXFXFXCXpXaXMXMXA.A.$Xx 2 x p.n.9.A v.pX*X[.fX[.[.[.{.{.4.....",
"@XB . # : .   . o       i Q.qXl.S.U.=X;X,X7XrXMXCXUXVXMXCXJXLXLXHXGXBXFXBXnXrXCX,XJ.$XZ.G p.9.9.9.9.B F j.{.w... . .W W W U U P ",
"5 s 2 . . . % . .     5 h.;XW.S.L.P.W.$X<X7XqXeXCXFXVXBXFXHXPXLXHXGXBXFXVXcXzXMX<X<X@XI.J.p.t.F B 9.B s j ' E U R T I T T T U T ",
"# # % # . #         % K :XQ.g.<XW.T.R.,XeXrXqX8XMXBXVXBXVXHXLXHXUXFXCXFXBXnXzXrX,X<XS.<X<Xs S S A 9.B 5 1 t t W W ~ I Y Y R Y R ",
"d 6 . . @ % .       4 ,XU.W.Q.S.W.D.E.).VX8XBXwXNXVXHXKXKXJXIXIXFXPXIXjXhXVXVXqX,XE.W.T.f.b 5 l x B l 1 1 t E U I ~ ! ! ~ Q Q Y ",
"I.9.s % . @ @ @ o o S ,XW.W.U.V.U.(.3X;XwXE.eXqXeXcXVXKXKXKXKXIXJXKXKXMXjXAXMXwX$X7X>XA.r.l 2 5 k x 4 = 1 j E P I ~ ! ! ! ! Q Y ",
"K.@X#X8.2     %   % -.=X.XQ.W.V.D.D.<X.X8X,XwX9XiXMXAXKXKXKXIXKXDXDXDXkXAXCXdXwXVX<Xm.r.D b 4 2 x g < $ r '  .U I ~ ! ! ! ! / Y ",
"#XJ.J.I.v.S %     6 d.I.;Xc.W.l.Q.g.j.c.5XNX6X.XaXZXDXKXKXDXDXDXkXlXlXDXDXkXdXiX4XN.g.m.y.n e , d d % @ u i.| E T I ^ ! ! ! Q Y ",
"7XI.v.I.@XK.F 4 o l J.W.}.g.v.-.c.-.L M g.6X.XXXdXkXDXKXDXDXDXkXlX+XlXlXDXkXdXdX`.G.M.w.V V D C 3 : # $ A x.,._ W ~ ~ ! ! Q Q Y ",
"K.#X@X#XC.b.d.v.b u.<X;XW.h.t.K L M M i z H.Q.6XXX6XkXAXDXkXkXkX+X+XOX+XlXlXuX5X4X~.w.n m i.k.z $ $ . 5 X.c.;.' E T ~ ~ Q Q / I ",
"#XK.b.C.T.T.C.u.u.W.=X:XA.c.u.h.X.M L i i ;.L z..XXX6XkXkXhXjXlXoX+X|.oXoXOXoXH.N.i.i.k.w.w.C + $ # 2 F h.l.[ ' U T ~ ~ ~ ~ ~ R ",
"I.J.T.I.C.v.v.v.b.E.A..XS.H.l.Q.c.-.;.M p -.; ; ^.XXuXuXuX+XoX|. X X|.7.|.OXoXk.~.} k.N.h + 1 h $ , B b.I.h.{ } t W T ~ ~ Q Q Q ",
"I.L.J.J.C.C.m.v.P.).R.D.D.H.H.G.x.x.;.*.*.*.y o p -.!.!.!. X7.7. X X6.!.:.z.].[ M u p ; + & e r $ > N b.B.d.g.;.' E P R / ! ! ! ",
"J.J.J.K.K.C.M.M.P.&X%XF.c.x.x.G.'.'.;.a a O.>.>.m p m [ 7. X7.5.5.6. X!.:.| :.u & & ; i u m u + $ , N d.b.h.y.} ] t U T / ! ( ( ",
"J.I.C.I.K.K.K.C.&X>X2X/.V.c.x.H.&X].x.] a *.>.,.[ p u ' !. X<.7.5.6.6.3.] ' M 0 & + + & u m 1 + o 2 F d.v.C.g.} t 9 9 T Y / ! ^ ",
"C.S.C.C.C.C.K.K.&X8X>X).G.D.(./.&X).x.;.*.*.*.a | [ [ | !.6.o.@.5.6.6.<.y q ] u r 0 O O ; 5 1 e > l t.C.C.U.Z.{ e w t W T / / ^ ",
"C.C.C.C.C.C.K.K.=X&X&XP.F././.).&X&XN.;.,.,.-.] ] } | | {.6.<.@.5.5.2.=.y q [ M ; ; & & p z e c n H S.A.v.C.g.D } j j W U T R I ",
"J.K.v.C.C.C.K.K.@XT.K.Z.F.`./.F.P.#XF.x.z.,.,.,.| | | | 3. X2.@.%.5.5.1._ y ] m r & & r D D b z D { m.m.d.b.a.F w.j w 9 9 P T P ",
"J.S.C.m.C.b.K.K.#X#XP.L.P.)././.K.#X(.H.z.;.;.:.:.:...| 4. X1.@.#.%.5.1.) y p u r & ; i z b n V { { g.f.a.v.m.s.q.h w j '  . . .",
"D.A.C.M.b.K.b.C.#X@X&X).Y.)._.).&X&XQ.x.k.;.;.:.| | >.4.4.1.o.2.%.%.5.1.) 0 p 0 ; & i M z h G a.j.g.V.S.d.v.K.m.q.m } {.gXgXfXfX",
"F.~.~.N.N.n.M.M.P.@XP.v.g.j.~./.*X`.H.x.z.z.,.z.!.3.4.4.>.1.1.#.#.%.5.2.) 0 0 ; + u M M L j.P.L.s.m.m.a.a.v.m.d.q.B V gXbXgXbXfX",
"m } k.N.j.j.M.P.C.T.T.L.c.Q._.'./.(..XoXOXoX!.z.:.>.3.3.<.+.$.$.&.%.5.@.) 0 0 ; r M i.i.i.M.R.P.V.G.j.i.a.v.v.p.q.9.V *XfXpXfXgX",
"9 w j } k.N.N.N.Z.W.$X_..X.X.X}.|.}..XoXuXOXoX!.,.3.3.3.<.<.<.@.#.&.5.2.) 0 * & r D j.V.V.P.&X$XF.D.m.a.f.K.Z.d.q.q.V &XvXvXxXvX",
"w 7 7 w m } j.k._.<X3X6X.X}.^.^..X.X^..XXXXXoX!.z.,.>.<.=.o.=.@.#.&.5.@.y 0 * * 1 V j.D.D.L.T.L.Z.M.g.i.f.L.$XE.w.9.B q.GXGXxXGX",
"8 9 9 7 7 h } ~.3X3X6X6XXX}.}.x..X.X'.`.'..X].].!.z.>.>.3.>.=.o.#.&.5.<.y 0 7 & , m y.N.m.d.a.p.i.a.i.q.i.V.$X9Xh.A N v zXzXnXyX",
"9 9 9 7 7 w [ ~.5X.X<X6XXX.XH.^.H..X:X8X9X2X*X`.uX!.:.:.;.=.>.<.@.#.5.+.q 7 * r - e Z y.a.t.0.t.8.0.y.y.y.a.L.:XL.L K v 7XnXnXyX",
"P 9 9 7 9 j w.~.'.(.(.XXXX}.x.H.H.W.%X0XxXxX&XP..Xz.-.:.;.*.-.=.@.#.5.+.q * r r , 3 l S 8.K J 8.H 0.y.s.s.j.V.D.;Xa.t.e.b.UXnXmX",
"8 P 9 9 7 t k.gX^.H.(.XXXX}.z.x.H.Y.L.&X*X0X&XN.c.x.oXkXlXz.-.] $.#.%.` q * w h n x g N S v v N H q.i.m.A.G.m.N.W.h.e.h.F FXmXnX",
"8 P 7 9 * u .X.X(..XXX.X^.!.x.~.Y.:X2X%XP.D.$X4X4XsXDXDXZXXXc.] $.#.5.` y 0 r r x d B 9.b.t.e.K 0.a.V.L.$X%XW.Z.U.U.u.S h.mXmXyX",
"8 8 8 7 * M oXXXH..XXX[.'.].].XXXX3X4X1X1X1X4XaXZXSXSXZXdX5XF.:.$.2.5._ q 0 r e x d A n.K.B.u.t.g.Z.R.%X>X8X>X@Xm.A.l.8.p.=XnXmX",
"P 8 9 7 0 ;.XXXX}..XXX*XXX5XuXuXiXwX4XwXiXsXNXNXZXbXaX3X:X`./.!.` 2.2._ q 0 i e g d B q.B.B.B.v.Z.R.>X2X9XpXeX7XZ.f.f.t.8.T.cXyX",
"P 8 9 7 p oXXX6XH..XXX5X4XgXfXsXsXiXiXiXiXsXbXjX4X5X`.Y.F././.x.o.2.4._ y p z e g d B Z 9.p.b.B.V.R.>X2X9XeXeX9X8Xf.q.G S L.cX<X",
"P 8 9 7 ' OX4X6X(.`.5X4X4XgXsXsXsXsXsXsXiXwX4XwXF.Y.F.F.F.Y.F.z.=.1.>._ y p b l c g g B V G q.s.m.P.&X2X8XeXeX9XvXN.q.q.c s.vX9X",
"P 8 8 q :.uXXXXX.X.X*X4XgXpXsXvXZXZXZXNXaX4X1X:XV.F.Y.Y./._.F.x.>.>.=.] u z m h g g g g V G { y.j.R.2X8X9XeXpXpXxX&XP.w.h D ).vX",
"P P 7 E !.gXXX~.`.`.*X4XpXsXcXbXAXZXZXNXbXwX`.F.Y./.(.)./._.F.x.,.>.:.[ M m c c g g g g Z 0.w.n.Z.;XeXcXpXcXpX9X*X0X*Xw.m h } N.",
"8 P 7 ' [.XXXXF.`.*X*X4XpXvXZXVXHXsXaXbXZXaX_.j.:X1X'./././.F.x.^.z.;.-.} C n V g g g g V w.N.&XL.>XzXcXcXpX9X0X0XpX0Xw.C h 3 m ",
"8 9 7 {.!.].5X`././.&X2XpXvXcXcXZXdXiXZXSXiX1X1X%X1X_.F.Y.F.G.(.H.^.x.x.s.D n Z c g d h Z q.w.*X&XE.>XpXvX9X9XvX*XgXgXN.C - - C ",
"t 9 t {.].`..X).R.).).*XpXvXcXcXNXaXsXVXZXiX3X3X_.1X/.F./.Y.F.`..XH.H.H.j.} C C n g d h c q.#X*XV.C.).pXBXpX0X9X&X*X&XN.w.c - d ",
"9 7 w ~.(..X}.;XR.).&X*X0XiXcXMXaXaXNXNXsX9X3X4X_.1X/.~.`.`./.:X.XG.(.(.j.s.w.} C g h d g q.&X&Xf.g.m.).9XeX8X&X&X*X*XP.N.} , $ ",
"' t t G.H.J.W.;XR.$X&X%X2XiXNXjXiXsXbXdX4X3X3X1X_.1X`._.3X1X:X3X;XV..X3Xn.N.&Xs.} h h , d q.xXxXR.j.q.y.L.8X2XR.P.*XxXP.G g , $ ",
"k.} D U.S.B.I.=X@X<X1X1X5XdXjXjXwXsXsX4X1X1X3X1X1X4X1X1XaXiX3XwX;XU.3X3Xj.G.0X`.C h d , , q.zXGX0XZ.{ G m.2X9XR.S.8XzXM.n 4 < # ",
"].N.-.I.h.B.}.=XT.>X0X1X5XtXdXtXwXNXdX`./.3XwX3XwXsXwXwXZXZXiXaX3X:XpX3XG.F.fXsXw.g 3 , , 9.xXGXxXR.y.{ m.0XeXR.Z.@X8XJ.H N l @ ",
"N.N.e.B.e.B.I.=XI.>X9X1X:X6X6X.X3XwX:XG.D.3XdX4XjXSXsXNXKXKXsXNXrXCXAX6X'.1XfXbXN.q.d = , B K.xXeX2XM.q.a.).>XW.J.U.<X=XB.u.A % ",
"M.D.e.h.A p.I.B.J.<X9X1X.X6XXX.X_.:XF.a.j.:XaX3XSXKXVXSXPXKXNXMXAXPXDXwX9XiXiXbXgXw.h - > d 9.xXxXpXR.q.G f.P.T.A.C.=X=XB.u.A 6 ",
"M.A.8.v S I.K d.;X8X%XW.:X:XG.f.E.E.8.h.S.8X<X7XAXIXCXLXFXPXeXLXLXLXHX0X*X0X0XGXbXM.f 3 X x : G vXxXb.b.F d n.7Xn.8.@X&X#X9.F 2 ",
"m.p.x # g.p.v C.L.<X8X>X$Xs.{ p.W.L f.d.<XqXu.<XLXFXnXVXFXHXMXLXbXLXHX&XM.&XvXvXxXM.3 , $ , . f &XK.n.b.q.N N t.#Xb.C.@X#XB d x ",
"S o o b U.4 % Z.8X&XL.L.m.G V y.p.x v.v.,XC.u.FXIXzXeXrXBXqXMXIXLXLXxXq.G &XLXGX&XP.g h g : X d p.@XP.G 9.b.F d n.b.q.C.#XN : B ",
"<   : E.v   2 W.T.A.a.0.V 4 3 V l r.v.W.J.S T.PXUX7X,X>XzXI.zXCXLXLXs., f K.BX&XM.&X9.0.q.% + 2 x #Xs.d g q.p.f B K F n.n.t.d 2 ",
"  2 L K   # r.$Xg.Z.g.S 4 o o 5 5 T.T.E.u.t.,XzXHX<XJ.J.Q.r.zXFXGXGXG % < a.pXM.F P.P.>X).l , 2 9.#XV s d s p.P.l d s q.8.p.c % ",
"  b v     X G v.J.d.b > o     X K E.K.8.S eXtXFXBXI.t.d.L x <XFXvX*Xf .   f P.&X= Z m.eXR.H l s M.xXF , : . x b.9.# . Z 9.F g : ",
"  = .   3 = v { r.v % . o     < h.d.K x F W.=X;XP.p.N u.s 6 f.<XZ.0..   # > H 0.X 2 V p.v H x l t.b.F . . : . x K.3 . < A x 2 : ",
"$ $ O = % S m.H 3 x J u.N : 4 g.v K l v u.s K l K S k a.< . S d.a.v $ S f.G G s { V G 0.3 s.H G p.x F 3 N G . 8.K.F : . B d > % ",
"$ % O O f KXPXHXD.K FXIXPXN u.PXK PXu.S.PXx PXx FX<Xt.PX6 @ A.LXLXPXb A.PXPXcX2 AXqXVXeXS PXA.eXcXV PXv zXs.S LXLXPXx   4 2 X > ",
"O O   X e VX&XL.PXK PXf.nXJ.h.JXt.PXt.S.PXr.PXv qXFX,XqX:   S.PXv PX0.U.HXJ KXv LXU.L.FX0.PX8.MX8XF LXf.GXZ.q.PXS BXC.% X > > . ",
"> + $ - 2 VXi.g.PXv PXL.PXe.S PX8.PXK f.PX@XIXv @XIXIX0.X   v.PXv PXu.W.PXS.PX4 IXl.J KXh.IXb eX&XS LXqXBXv.d.PXs 0.v @   O :   ",
"+ O $ + > LXm.L.BXH PXnXPXx K PXJ PXp.S.PXLXPXv tXIXPX8.  @ W.PXL IXK A.DXIX;X< IXU.L PXU.PXb qXqXS PXHXPXa.L.PXf.M.x $ $     @ ",
"O + , $ > PXi.y.FXp.PXe.IXK p.UXL PXp.v.MXLXIXx nXzXJXT.  o I.PXb IXc.,XtX3XyXS UXQ.l PXXXPXk 6XqXV PX8XPX{ K.PXS LXm.. o % @ @ ",
"- , 3 = , LXR.P.PXS PXK UX}.F UXp.JXr.v.,X7XUXb zX,XzXJX    A.PXL IXL Q.hXJ IXl PXc.5 PXUXCX< CX,XV PXf.PXr.g.PXv PXm.    % X $ ",
"$ + + + e GXVXPXtXb PXB.UXI.k IXyXMXS K.<Xp.JXS 7X=XJ.LXl % V.UXnXPXv .XPXc.PXl DXS.k DXIXhX< CX<XK AXS IXf.S PX,XPX-.o % o   O ",
"1 - $ > e s.a.v.v s B.k l.A 6 e.,Xd.o K t.6 J.4 t.8.4 f.b . F c.h.u.6 u.L v l.5 h.L o u.l.g.  u.8.l j.% j.S   L.g.m.l $ % % = % "
};
