/* XPM */
static char *ed4b8b1221d94e46f0ee5eac8b466797JfiELGmEgYRVjF8k[] = {
/* columns rows colors chars-per-pixel */
"64 64 256 2 ",
"   c #020102",
".  c #0B0101",
"X  c #030109",
"o  c #0C020A",
"O  c #080903",
"+  c #130101",
"@  c #1B0101",
"#  c #1B0C01",
"$  c #170508",
"%  c #181501",
"&  c #160313",
"*  c #191715",
"=  c #080010",
"-  c #240201",
";  c #2C0201",
":  c #270707",
">  c #340100",
",  c #3C0201",
"<  c #380707",
"1  c #261504",
"2  c #381807",
"3  c #260418",
"4  c #390617",
"5  c #321B13",
"6  c #392606",
"7  c #312709",
"8  c #2A0125",
"9  c #351729",
"0  c #302D2E",
"q  c #1C211B",
"w  c #430101",
"e  c #4B0301",
"r  c #430B02",
"t  c #4B0805",
"y  c #520301",
"u  c #590805",
"i  c #481704",
"p  c #581802",
"a  c #470616",
"s  c #4F1318",
"d  c #670301",
"f  c #760302",
"g  c #661704",
"h  c #660718",
"j  c #74170C",
"k  c #472606",
"l  c #572705",
"z  c #4C3806",
"x  c #492618",
"c  c #523511",
"v  c #742807",
"b  c #6A3507",
"n  c #783715",
"m  c #6F2F0D",
"M  c #510A2C",
"N  c #69102A",
"B  c #593529",
"V  c #4F2E2E",
"C  c #633529",
"Z  c #713336",
"A  c #5B450B",
"S  c #79470C",
"D  c #68471A",
"F  c #794815",
"G  c #705310",
"H  c #52433D",
"J  c #774B2F",
"K  c #6D691E",
"L  c #3A3D41",
"P  c #590D4D",
"I  c #6E0B54",
"U  c #523445",
"Y  c #6E2B50",
"T  c #641962",
"R  c #504C4E",
"E  c #704F4C",
"W  c #766551",
"Q  c #745B67",
"!  c #776869",
"~  c #736E71",
"^  c #5B406B",
"/  c #870502",
"(  c #990501",
")  c #971600",
"_  c #881607",
"`  c #A70600",
"'  c #B70805",
"]  c #AF180B",
"[  c #962803",
"{  c #853903",
"}  c #8E340F",
"|  c #B02906",
" . c #9A2634",
".. c #DA0B06",
"X. c #C91802",
"o. c #DB1306",
"O. c #D01512",
"+. c #E80906",
"@. c #FB0201",
"#. c #F50704",
"$. c #E41403",
"%. c #E81014",
"&. c #C92903",
"*. c #D63906",
"=. c #D1300C",
"-. c #DF2B20",
";. c #884A07",
":. c #90540F",
">. c #AE4C0B",
",. c #946A0C",
"<. c #AF6F13",
"1. c #954D2C",
"2. c #AB5130",
"3. c #8E6831",
"4. c #A86D36",
"5. c #D3510B",
"6. c #EA4F0E",
"7. c #CD700E",
"8. c #EC6F0F",
"9. c #D54E2C",
"0. c #EE712C",
"q. c #CB6C35",
"w. c #8B314C",
"e. c #881B74",
"r. c #99305F",
"t. c #894F4D",
"y. c #AD5652",
"u. c #856756",
"i. c #B26C52",
"p. c #8C5171",
"a. c #AF496B",
"s. c #8D6F74",
"d. c #AC7373",
"f. c #C35554",
"g. c #CF7253",
"h. c #F47553",
"j. c #D46E71",
"k. c #EF7874",
"l. c #E1555C",
"z. c #B08F31",
"x. c #A59017",
"c. c #D68E11",
"v. c #F29910",
"b. c #FAAF0D",
"n. c #F1902F",
"m. c #F8AB31",
"M. c #CCA827",
"N. c #FEE818",
"B. c #FDF718",
"V. c #FDF20B",
"C. c #F6CE35",
"Z. c #FBF927",
"A. c #FDE839",
"S. c #FDF33A",
"D. c #EED914",
"F. c #AF904A",
"G. c #988E78",
"H. c #B49175",
"J. c #B0A860",
"K. c #D28C53",
"L. c #F69054",
"P. c #C9AB53",
"I. c #F9B351",
"U. c #CD8F6F",
"Y. c #F68C75",
"T. c #F7B36E",
"R. c #CEAC6F",
"E. c #F7CC4F",
"W. c #FAF747",
"Q. c #F9F658",
"!. c #F1ED54",
"~. c #FCD776",
"^. c #FDCB6B",
"/. c #FDFB66",
"(. c #FFE57A",
"). c #FEFD7C",
"_. c #A62797",
"`. c #AE7088",
"'. c #A55B9A",
"]. c #CE6E93",
"[. c #CC62B1",
"{. c #D55DD2",
"}. c #989695",
"|. c #938B8A",
" X c #AE9394",
".X c #B8AD93",
"XX c #B492A8",
"oX c #ABAAA8",
"OX c #BBB6B7",
"+X c #B3AEAE",
"@X c #CB9394",
"#X c #FC9489",
"$X c #D9B28F",
"%X c #FAA788",
"&X c #FAAB94",
"*X c #FBB997",
"=X c #EFB48B",
"-X c #CE95AB",
";X c #C7B8B7",
":X c #D4AEB1",
">X c #FCB9A7",
",X c #F3B1AD",
"<X c #F698BA",
"1X c #BFC1BE",
"2X c #FFD694",
"3X c #FCCE8D",
"4X c #FFE888",
"5X c #FCE799",
"6X c #FEF99A",
"7X c #FEF786",
"8X c #CCC4B6",
"9X c #FBC7A6",
"0X c #FAD4A9",
"qX c #FAD5B9",
"wX c #F5CDB4",
"eX c #FEE7A7",
"rX c #FEFCAC",
"tX c #FEF9A5",
"yX c #FCE6B6",
"uX c #FFFEBC",
"iX c #FCF9B7",
"pX c #BCBDC1",
"aX c #D2B1C8",
"sX c #EEB5C6",
"dX c #F692F4",
"fX c #EF9CE1",
"gX c #BDC1C0",
"hX c #C9C6C6",
"jX c #D6D3CE",
"kX c #D8CFD0",
"lX c #FED7C9",
"zX c #E8DAD6",
"xX c #F4CECF",
"cX c #FFEAC6",
"vX c #FEFDC4",
"bX c #FFFDCC",
"nX c #FEF3C8",
"mX c #FDE9D4",
"MX c #FFFDD3",
"NX c #FEFDDC",
"BX c #FEF4DA",
"VX c #E6E6D7",
"CX c #F2DAEB",
"ZX c #E8E7E8",
"AX c #FBE7E9",
"SX c #FEFDE3",
"DX c #FFFEEC",
"FX c #FCF5E8",
"GX c #FEEBFB",
"HX c #FEF5F4",
"JX c #FDFDF4",
"KX c #FEF5FC",
"LX c #FEFDFD",
"PX c #F6FAF8",
"IX c #EBECF1",
"UX c #DCE0E3",
/* pixels */
"5 5 V R V U s. X-X:X-X-X`.t.J D B 5 # # - ; b $XJXLXLXLXJXMXR.:.i > # .                             . @ : k x B B B V 5 % % O # ",
"5 V H E Q s.XXaXsXsX-Xd.t.C x 2 : + . . 5 E k H.jXUXUXjXPX.XR.J k 2 @ .           * +Xq             . - < x C Z B V x 1 # # O + ",
"k B E s.`.-X:XsXsX-Xd.Z x 1 # .   O     |.JX! 8X+X}.}.oXoX+XFX.X;XG.oXhXR +X}.}.~ hXLX0             . : 4 s Z E C x 5 1 # # # + ",
"6 B u.`.-X-XaX-X`.t.x : # .         o   ~ zX|.hXIX}.FXjX+X+XUX+XJX}.1XZXgXZX;XzXkXhXIX0             . $ 4 s Z t.C x 2 7 1 1 1 # ",
"1 B u.@X,XsXsX@Xt.a @ . .         . - : ! zXR kXPX~ JXkXOXhXjXoX8X0 hXZXOXjXoXhXhXoXIX0               $ 4 a Z t.J c k k 6 1 1 % ",
": x t.@XsXxXsXd.m > @             + r r u.FX;XzXVX.XzXjXoX+XjX+X8XW HXZXpXZXVXjXhXZXLXL               . 3 4 N E J D z z z 6 7 % ",
"i k J @XxXlXxX@Xn r ; + .   . . + - u g m i.4.F.z.F.G.}.8X8X}.G.W x s.! L R ~ R R ~ Q *               . @ ; i C J D A A c z 7 % ",
"l l C H.wXlXmX>Xi.b i ; @ . . . @ , g [ <.<.<.c.C.!.iXFXJXJXDX8XD c - +                               . . @ ; k c D A z z 7 1 % ",
"D k k 3.>XlXmXcX=X1.v t , - . . - t [ 7.c.v.v.b.N.W.uXDXJXDXMX$XF n r - . O                             . . . @ 2 6 6 2 # + + + ",
"3.l 2 l U.9XmXmXqXK.:.v u , + . ; t { 7.v.b.b.b.V.S.rXDXJXSXuXP.l m u , @ . . . . . .                         . . + + . . . + . ",
"U.1.r r 1.U.=X*X>XY.1.} v e : $ : r v <.c.b.b.b.N.S.rXSXJXNX6Xz.t g u u > - @ - - - @ . .                       . . . O       . ",
"=XU.J p v 2.4.g.#Xj.1.1.v w @ + + - g >.7.m.v.v.b.A.tXNXDXMX~.;.w u u y r , < r t r ; @ + .                                     ",
"lXwX@Xt.m n } } 2.2.} m u > + . . - w j [ 5.5.| 7.E.6XbXNXvXT.l - > t u t w , w y u w , > - +                                   ",
"HXAXlXU.n v v p g j u e , ; + . + < N r. .f f / >.E.6XuXbXiXK.r @ - > w w , t u y j n J J C 2 @ + . . .                         ",
"LXHXAX,Xy.} { g e , w , < @ + $ p.].a.a.].<Xr.d [ n.4XrXvXyX4., + . @ - > > e d j y.$XlXmXwXR.3.i > @ + .             . 1 6 6 7 ",
"LXLXHXlX@Xy.1.:.p , , > - @ Y -X].w.M a 4 M `.@Xg.T.5XiXvXwXU.u.R 0 $ + @ > u j y.,XAXJXFXNXyXT.4.S l 2 @ . .     . # c J A z z ",
"JXJXLXHXmX,XU.g.1.p , ; M `.].r.N a < @ $ + XXKXHXDXDXDXDXJXJXLXLXKXZXhX}.E Z w.j.CXKXHXJXSXbX2XM.<.,.S i ; @ + @ 2 D G G A z z ",
"JXJXLXLXLXlX%XK.2.v > Y sX]. .h a @ + H +XZXLXLXLXLXLXLXJXJXLXLXPXLXLXLXJXJXAXxX-X-XxXKXLXDXnXR.z.,.,.,.b < ; - ; l F S S l k k ",
"HXLXLXLXJXBX*XL.q.v h ].Z M a ; + H xXBXDXZXLXLXLXLXLXLXLXLXLXJXJXJXPXLXJXJXJXJXLXAXkXhX;X Xu.n F :.,.:.F l , ; > p F ;.m p > ; ",
"AXLXLXJXSXMX3Xg.2.} j.w.< ; - + ! DX:X:XFXkXFXDXJXJXJXJXJXJXJXJXJXJXJXLXLXLXLXLXPXLXLXLXAXXXC - ; l b ;.S b l r , p m p y w - @ ",
"HXJXLXDXcX3XK.2.j a.a.a $ + . 7 nX.X X XxXd.H.nXMXSXDXJXJXJXJXLXLXLXLXLXLXLXLXJXLXLXLXLXLXLXLX;XH - > b :.:.;.b p p p t w ; + . ",
"qXBXJXFX$X4.S g a.a.Z < o     G.yXc 4 p.,Xn 3.4X6XrXuXvXbXMXNXSXNXNXSXDXJXJXJXJXLXPXLXLXLXLXLXLXLX;XB < F <.<.<.:.;.n p > - +   ",
"i.9XFXJXqXu.Z t.w.s - + .   W FXqXB M Y qX6 ,.Q.W.Q./././.).6XtX6XtX6XrXbXNXDXDXLXLXLXLXJXJXLXLXKXLXJX.XF ,.M.c.c.>.:.n i - .   ",
"1.4.:XFXDXHXAXt.a ; +   . |.JXDXFX@XY `.0X# x.Z.B.Z.Z.Z.Z.S.Q./.Q./.Q./.7X6XrXvXMXSXDXJXJXJXJXLXLXLXJXJXmXU.<.m.<.:.;.v < @     ",
"l F 3.H.s.s.V $ 3 &   O OXLXLXJXJXHXGXAXH.# D.B.B.B.B.V.B.B.B.Z.B.Z.Z.Z.Z.W.W.Q.).6XbXSXJXJXLXLXLXLXLXJXJXDX0XF.;.} g r - .     ",
"k k k ; + . o o & o * hXLXKXLXLXLXJXJXJXu.z Q.A.Z.N.N.B.N.Z.B.B.B.V.B.Z.Z.Z.Z.Z.S./.6XvXNXDXJXLXLXLXLXLXKXLXJXmXi.w t > +       ",
": @ @ + . O O O X X +XLXJXJXLXLXLXLXLXJXhXW P.I.c.v.b.m.C.C.C.A.A.S.W.Q.Q.!.W.S.S.W.Q.).6XbXJXLXLXLXLXLXLXLXJXJXFX X@ + +       ",
"1 + . o   O       0 LXLXJXJXLXLXLXLXPXLX;X# @ 4.n.5.*.&.*.*.5.6.8.m.E.(.4X6X)./.Q.Q./.).6XvXSXJXJXJXLXLXLXLXLXLXJXJX X. . .     ",
"$ . .   .         |.LXLXLXLXLXLXLXLXLXLXkX. . - n.n.6.$.$.+.$.$.o.o.X.=.=.h.Y.3XeXtXrXiXuXbXNXSXDXJXLXLXLXLXLXLXLXPXLXOX- : + + ",
"@ + . . . .     O UXHXLXLXPXLXLXJXJXLXLXLX0 . @ g =.o.#.#.#.#.@.@.@.@.#.+.+...O.9.h.*X0XcXnXBXMXBXFXDXJXLXLXLXLXLXLXLXHX X: : - ",
"; ; @ +         0 LXLXLXHXJXLXLXLXLXLXLXLXoX# - w | $.#.#.@.@.@.@.@.@.@.#.#.#.+.+.o.X.-.h.%X0XnXBXNXNXSXJXLXLXLXLXLXHXJXHXs.@ - ",
"n l , ; .   O   |.LXHXLXJXJXLXLXLXLXLXLXLXLXkXZ u 2.l.+.#.@.@.@.@.@.@.@.@.@.@.@.@.@.#.#.o.X.=.L.&XwXcXMXSXDXJXKXGXGXGXKXLXHX9 + ",
"S S p r @ .     ;XLXLXLXLXLXLXLXLXLXLXLXJXJXJXFX$Xg.k.l.%.#.@.@.@.@.@.@.@.@.@.@.@.@.@.@.#.+.$.o.O.9.Y.0XcXBXKXGXdX{.dXGXGXKXoX. ",
":.S m i : . o   ;XJXJXLXLXLXLXLXLXLXLXLXJXJXPXJXcX=Xi._ ] O.O.o.o.o...%.%.+.+.#.#.#.#.#.@.@.@.@.#.$.&.9.h.%X-XfXdX{.[.fXGXXXaXU ",
"3.b p > #     o hXJXLXPXLXLXJXLXLXLXLXLXLXLXLXHXFXFXu.@ > , e y d f / ( ] ] O.O.O...+.+.#.#.@.@.@.#.+.o.=.-.l. .e._._._.dXe.p.-X",
"c 2 > - + O     zXLXJXPXLXLXLXLXLXLXLXLXLXLXLXLXHXHXR .   . . + - - > > , w d f / / ` ' X.O.O.%.+.+.+.#.#...-.-.h M I _.{.e.Y `.",
"@ @ @ - +   O   OXLXLXLXLXLXLXLXLXLXJXJXLXLXLXJXHXLXQ o & o . 1 V - + + + @ > , ; - - > w y f / ] O.%.+.#.#.+.-.f.y M e.e.I Y p.",
"@ - > < + . O O s.LXPXLXLXLXLXLXLXLXJXJXLXLXPXLXKXCXY 8 8 & o + : . o o   . : - + .   . . + @ ; w d ( ' %.+.%...=.Y.y h I I Y p.",
", t h N Y 3     R LXLXLXLXLXLXLXLXLXJXLXLXLXLXLX-XP I _._.M &   . .       # : - + .   o X . + @ @ > e d f ( ' O.X.h.%Xd h M U Q ",
"y g h w.aX3 o     hXLXLXLXLXLXLXLXJXLXLXKXLXLXOX9 8 P _._.P & X           + : : $ .       . @ - > , e u d f / ( ' &.0.g.u 4 U R ",
"p m u Z '.8 o X   R LXLXKXKXLXLXJXJXPXLXLXGX X& o & e.'.T 8 o               + + o     . + - t y f f f f f _ [ _ ) ) ] 2.g - V U ",
"> i s 4 P 8 o   X   ~ LXLXLXPXLXJXJXLXGX}.9 3 & . & M M 3 o                 . .       . - y d / ( ( / / / / } >.} _ f d w - 4 : ",
". + + + o o       o   0 OXPXLXLXjX}.! 9 $ 3 3 & . + + o .                             @ y f ) | ` ` ( / ( | 9.>.[ [ _ d y w > - ",
"      .                   q ! R X   + @ 3 & & o .                                 . @ t f ) 5.5.&.` ` ( ` &.0.5.>.>.[ f f j y w ",
"O     X   X           O O       X   : - $ * . .                                   + , f ] 5.8.8.5.| ' ' ..$.0.8.0.6.&.' ` | ) ) ",
"                            . . X X @ + . $                                       - d ) 6.8.m.n.8.5.*.&.$.$.8.8.8.&.X.&.*.*.| ] ",
"    X X               X         X   . .                                         o > / &.5.m.(.^.n.8.8.8.6.&.n.m.8.6.8.0.n.0.0.9.",
"      . .               X X         O               X       .                   . w ] &.n.(.rXrX^.m.v.m.8.8.^.E.m.m.I.^.^.T.T.L.",
"  . + # +                                                                       o w | 5.I.6XMXNXbXtX4X(.^.^.~.^.I.~.2X3X2X3X=XT.",
". . @ 5 V .                                                                     o > | 5.~.iXDXJXDXNXiXtX6X5X4X~.~.5X0X9X9X9X*X%X",
"    . + x 5                                                                       @ { n.eXbXDXJXJXDXMXbXbXiX5X2X5XeXeX0XwX9X*X&X",
"      + - 2 +                                                                     . p P.iXMXDXJXJXJXSXSXNXbXiXiXyXyXyXcXlXlX>X*X",
"X     . @ 1 $                                                                     O @ P.rXvXSXJXJXJXJXJXDXSXNXMXcXcXnXnXmXlX>X,X",
"0     . . + $ .                                                                 X   . F.tXiXNXSXNXNXJXJXJXDXDXSXSXBXnXcXcXlX>X&X",
"LX}.q O . . o           X X                                                     X O O z.6XtXbXMXrXiXSXJXHXJXJXSXNXbXnXqXqXwX,X#X",
"GXLXFX|.q o   O             . .                                                   O . 3.~.(.tXtX~.6XbXSXDXJXDXFXnXnXyX0X>X>X#X#X",
"zXHXLXLXHX|.* O     . 1 A D - .             O             X           O           . @ S n.m.^.I.m.4XrXvXMXSXSXSXnXyX0X9X&X#X#Xk.",
"kXzXKXLXLXLXFX|.q   . 7 G F.F.k @ .                   O     X             O       . @ n 7.8.8.5.8.I.4X5XuXMXBXmXyX0X*X&X#X#XY.k.",
":XxXCXGXKXKXLXJXZX|.5 # A ,.z.3.l a : .         X =                                 . l } >.| | &.6.L.^.2X0XqXlXqX>X%X#XY.k.j.f.",
"@X:X:XsXzXGXLXHXJXJXmXG.z A G D p s 4 +         X X * % O O O O                     + i { _ f / ` | 0.I.T.=X*X9X>X&X#XY.k.j.i.y.",
"s. X:XsXsXGXkX;XJXJXLXHXmXs.B k > 4 + o             R mXK K A 6 #                   . k :.{ g j [ [ 7.L.L.Y.%X&X&X#X#Xk.j.f.y.t.",
"! s. X-XxXAXAXzXLXAX:XkXGXzX Xu.s.Q ! o X   O       H SXuX7XE.z.u.. O O         O O . 6 z.,.;.n { { >.7.q.L.Y.Y.#XY.k.j.f.y.t.Z ",
"Q ! ! s.|.|. XhXLXQ 9 '.aXCXU * U 9 $         .     oXJXMXtXC.M.G + + .       O       1 P.M.x.,.:.;.:.>.<.q.g.g.g.g.i.y.t.J C B ",
"R R Q ~ ! s.|.OXAXV `.aX'.^ &       o O O   .     0 LXLXSXrXW.M.3. XV 9 o         O   1 P.E.M.x.,.,.<.<.<.2.2.2.2.2.1.Z C B x 2 "
};
